# Blender v2.78 (sub 0) OBJ File: 'red.blend'
# www.blender.org
mtllib red.mtl
o 柱体.001
v 0.415735 -0.600234 -0.317209
v 0.353554 -0.600234 -0.357465
v 0.277786 -0.600234 -0.391614
v 0.191342 -0.600234 -0.416375
v 0.000001 -0.600234 -0.436771
v -0.191341 -0.600234 -0.416375
v -0.277785 -0.600234 -0.391614
v -0.353553 -0.600234 -0.357465
v -0.415735 -0.600234 -0.317209
v -0.097545 -0.600234 -0.431623
v 0.097546 -0.600234 -0.431623
v 0.415735 -0.075966 -0.317449
v 0.353554 -0.075966 -0.357878
v 0.277785 -0.075966 -0.391614
v 0.191342 -0.075966 -0.416375
v 0.000001 -0.075966 -0.436771
v -0.191341 -0.075966 -0.416375
v -0.277785 -0.075966 -0.391614
v -0.353553 -0.075966 -0.357879
v -0.415735 -0.075966 -0.317449
v -0.097545 -0.075966 -0.431623
v 0.097546 -0.075966 -0.431623
vt 0.1134 0.8388
vt 0.1265 0.7347
vt 0.1523 0.7246
vt 0.1441 0.8628
vt 0.1854 0.7253
vt 0.1781 0.8719
vt 0.2223 0.7274
vt 0.2168 0.8772
vt 0.2613 0.7290
vt 0.2585 0.8803
vt 0.3014 0.7298
vt 0.3019 0.8812
vt 0.3415 0.7291
vt 0.3453 0.8808
vt 0.3805 0.7275
vt 0.3870 0.8782
vt 0.4176 0.7255
vt 0.4255 0.8732
vt 0.4509 0.7249
vt 0.4595 0.8641
vt 0.4769 0.7350
vt 0.4903 0.8400
vn -0.5443 -0.0005 -0.8389
vn -0.4088 -0.0004 -0.9126
vn -0.2754 -0.0000 -0.9613
vn -0.1605 0.0000 -0.9870
vn -0.0527 0.0000 -0.9986
vn 0.0527 0.0000 -0.9986
vn 0.1605 0.0000 -0.9870
vn 0.2754 0.0000 -0.9613
vn 0.4088 -0.0004 -0.9126
vn 0.5443 -0.0005 -0.8389
usemtl None
s off
f 9/1/1 20/2/1 19/3/1 8/4/1
f 8/4/2 19/3/2 18/5/2 7/6/2
f 7/6/3 18/5/3 17/7/3 6/8/3
f 6/8/4 17/7/4 21/9/4 10/10/4
f 10/10/5 21/9/5 16/11/5 5/12/5
f 5/12/6 16/11/6 22/13/6 11/14/6
f 11/14/7 22/13/7 15/15/7 4/16/7
f 4/16/8 15/15/8 14/17/8 3/18/8
f 3/18/9 14/17/9 13/19/9 2/20/9
f 2/20/10 13/19/10 12/21/10 1/22/10
o 柱体
v 0.500000 -0.758500 -0.160319
v 0.500000 0.735000 -0.160319
v 0.401675 -0.680711 -0.052104
v 0.401675 0.735000 -0.047999
v 0.347710 -0.647097 -0.003948
v 0.347710 0.735000 -0.003948
v -0.347710 -0.647097 -0.003949
v -0.347710 0.735000 -0.003949
v -0.401675 -0.680711 -0.052104
v -0.401675 0.735000 -0.047999
v -0.500000 -0.758500 -0.160319
v -0.500000 0.735000 -0.160319
v -0.490393 -0.744810 -0.235551
v -0.461940 -0.733209 -0.297449
v -0.415735 -0.724676 -0.342980
v -0.353553 -0.717196 -0.382889
v -0.277785 -0.711058 -0.417865
v -0.191341 -0.706497 -0.442626
v -0.097545 -0.703688 -0.457873
v 0.000000 -0.702740 -0.463022
v 0.097546 -0.703688 -0.457873
v 0.191342 -0.706497 -0.442626
v 0.277786 -0.711058 -0.417865
v 0.353554 -0.717196 -0.382888
v 0.415735 -0.724676 -0.342980
v 0.461940 -0.733209 -0.297449
v 0.490393 -0.744810 -0.235550
v -0.499129 0.723477 -0.167055
v 0.499129 0.723477 -0.167055
v -0.490393 0.617069 -0.234639
v -0.461940 0.517917 -0.297615
v -0.353553 0.381055 -0.384543
v -0.415735 0.444983 -0.343939
v -0.277785 0.328592 -0.417865
v -0.097545 0.265601 -0.457873
v -0.191341 0.289608 -0.442626
v 0.490393 0.617070 -0.234639
v 0.097546 0.265601 -0.457873
v 0.191342 0.289608 -0.442626
v 0.415735 0.444984 -0.343939
v 0.277786 0.328592 -0.417865
v 0.461940 0.517918 -0.297615
v 0.353554 0.381056 -0.384542
v 0.000000 0.257496 -0.463022
v 0.415735 -0.600891 -0.343459
v 0.353554 -0.600891 -0.383715
v 0.277786 -0.600891 -0.417865
v 0.191342 -0.600892 -0.442626
v 0.000000 -0.600892 -0.463022
v -0.191341 -0.600892 -0.442626
v -0.277785 -0.600892 -0.417865
v -0.353553 -0.600892 -0.383716
v -0.415735 -0.600892 -0.343460
v -0.097545 -0.600892 -0.457873
v 0.097546 -0.600892 -0.457873
v 0.415735 -0.076623 -0.343699
v 0.353554 -0.076623 -0.384129
v 0.277785 -0.076623 -0.417865
v 0.191342 -0.076623 -0.442626
v 0.000000 -0.076623 -0.463022
v -0.191341 -0.076623 -0.442626
v -0.277785 -0.076623 -0.417865
v -0.353553 -0.076623 -0.384129
v -0.415735 -0.076623 -0.343700
v -0.097545 -0.076623 -0.457873
v 0.097546 -0.076623 -0.457873
v 0.415735 -0.600886 -0.312914
v 0.353554 -0.600886 -0.353170
v 0.277786 -0.600886 -0.387319
v 0.191342 -0.600886 -0.412080
v 0.000000 -0.600886 -0.432476
v -0.191341 -0.600886 -0.412080
v -0.277785 -0.600886 -0.387320
v -0.353553 -0.600886 -0.353171
v -0.415735 -0.600886 -0.312915
v -0.097545 -0.600886 -0.427328
v 0.097546 -0.600886 -0.427328
v 0.415735 -0.076617 -0.313154
v 0.353554 -0.076617 -0.353584
v 0.277785 -0.076617 -0.387319
v 0.191342 -0.076617 -0.412080
v 0.000000 -0.076617 -0.432476
v -0.191341 -0.076617 -0.412080
v -0.277785 -0.076617 -0.387320
v -0.353553 -0.076617 -0.353584
v -0.415735 -0.076617 -0.313154
v -0.097545 -0.076617 -0.427328
v 0.097546 -0.076617 -0.427328
v 0.000000 0.723477 -0.167055
v 0.415735 -0.600234 -0.909841
v 0.353554 -0.600234 -0.950097
v 0.277786 -0.600234 -0.984246
v 0.191342 -0.600234 -1.009007
v 0.000001 -0.600234 -1.029403
v -0.191341 -0.600234 -1.009007
v -0.277785 -0.600234 -0.984247
v -0.353553 -0.600234 -0.950097
v -0.415735 -0.600234 -0.909842
v -0.097545 -0.600234 -1.024255
v 0.097546 -0.600234 -1.024255
v 0.415735 -0.075966 -0.910081
v 0.353554 -0.075966 -0.950511
v 0.277785 -0.075966 -0.984246
v 0.191342 -0.075966 -1.009007
v 0.000001 -0.075966 -1.029403
v -0.191341 -0.075966 -1.009007
v -0.277785 -0.075966 -0.984247
v -0.353553 -0.075966 -0.950511
v -0.415735 -0.075966 -0.910081
v -0.097545 -0.075966 -1.024255
v 0.097546 -0.075966 -1.024255
v 0.185076 -0.701718 -1.281612
v 0.122895 -0.701718 -1.321868
v 0.047127 -0.701718 -1.356017
v -0.039317 -0.701719 -1.380778
v -0.230659 -0.701719 -1.401174
v -0.422001 -0.701719 -1.380778
v -0.508444 -0.701719 -1.356018
v -0.584212 -0.701719 -1.321868
v -0.646394 -0.701719 -1.281612
v -0.328204 -0.701719 -1.396026
v -0.133113 -0.701719 -1.396026
v 0.185076 -0.177450 -1.281852
v 0.122895 -0.177450 -1.322281
v 0.047126 -0.177450 -1.356017
v -0.039317 -0.177450 -1.380778
v -0.230659 -0.177450 -1.401174
v -0.422001 -0.177450 -1.380778
v -0.508444 -0.177450 -1.356018
v -0.584212 -0.177450 -1.322282
v -0.646394 -0.177450 -1.281852
v -0.328204 -0.177450 -1.396026
v -0.133113 -0.177450 -1.396026
vt 0.5310 0.0001
vt 0.5056 0.4608
vt 0.4428 0.4206
vt 0.4678 0.0491
vt 0.4161 0.4052
vt 0.4384 0.0714
vt 0.1877 0.4037
vt 0.1720 0.0719
vt 0.1606 0.4202
vt 0.1434 0.0516
vt 0.0976 0.4642
vt 0.0814 0.0001
vt 0.5130 0.9024
vt 0.5065 0.8541
vt 0.5416 0.9016
vt 0.4831 0.7228
vt 0.4577 0.5720
vt 0.7448 0.0294
vt 0.6217 0.0295
vt 0.6045 0.0001
vt 0.7448 0.0001
vt 0.7448 0.0622
vt 0.6358 0.0622
vt 0.7448 0.0978
vt 0.6463 0.0978
vt 0.7448 0.1353
vt 0.6528 0.1353
vt 0.7448 0.1740
vt 0.6550 0.1740
vt 0.7448 0.2126
vt 0.6528 0.2126
vt 0.7448 0.2501
vt 0.6463 0.2501
vt 0.7448 0.2857
vt 0.6358 0.2857
vt 0.7448 0.3185
vt 0.6217 0.3184
vt 0.7448 0.3478
vt 0.6045 0.3478
vt 0.0001 0.8967
vt 0.0764 0.4718
vt 0.1017 0.5110
vt 0.5014 0.5105
vt 0.3013 0.4696
vt 0.5051 0.4679
vt 0.0909 0.9010
vt 0.0974 0.8529
vt 0.1450 0.8759
vt 0.1335 0.9113
vt 0.1800 0.8850
vt 0.1731 0.9184
vt 0.2183 0.8905
vt 0.2145 0.9226
vt 0.2593 0.8937
vt 0.2574 0.9249
vt 0.3018 0.8949
vt 0.3016 0.9261
vt 0.3444 0.8942
vt 0.3459 0.9255
vt 0.3854 0.8915
vt 0.3888 0.9236
vt 0.4235 0.8863
vt 0.4303 0.9197
vt 0.4586 0.8772
vt 0.4701 0.9128
vt 0.4130 0.7140
vt 0.4469 0.7141
vt 0.4509 0.7249
vt 0.4176 0.7255
vt 0.1203 0.7225
vt 0.1563 0.7138
vt 0.1523 0.7246
vt 0.1265 0.7347
vt 0.3453 0.8808
vt 0.3870 0.8782
vt 0.3773 0.7156
vt 0.3805 0.7275
vt 0.3019 0.8812
vt 0.3399 0.7169
vt 0.3415 0.7291
vt 0.1134 0.8388
vt 0.2585 0.8803
vt 0.4903 0.8400
vt 0.4769 0.7350
vt 0.3014 0.7173
vt 0.3014 0.7298
vt 0.4255 0.8732
vt 0.1900 0.7138
vt 0.1854 0.7253
vt 0.1441 0.8628
vt 0.4595 0.8641
vt 0.2256 0.7156
vt 0.2223 0.7274
vt 0.1781 0.8719
vt 0.2630 0.7169
vt 0.2613 0.7290
vt 0.2168 0.8772
vt 0.6083 0.4387
vt 0.6196 0.4140
vt 0.6045 0.4686
vt 0.6379 0.3959
vt 0.6624 0.3800
vt 0.6924 0.3660
vt 0.7266 0.3562
vt 0.7637 0.3501
vt 0.8022 0.3480
vt 0.8408 0.3501
vt 0.8779 0.3562
vt 0.9120 0.3660
vt 0.9420 0.3800
vt 0.9666 0.3959
vt 0.9848 0.4140
vt 0.9961 0.4387
vt 0.9999 0.4686
vt 0.4798 0.5469
vt 0.4321 0.5928
vt 0.4033 0.6098
vt 0.3714 0.6223
vt 0.3370 0.6300
vt 0.3015 0.6327
vt 0.2659 0.6301
vt 0.2316 0.6224
vt 0.1997 0.6099
vt 0.1709 0.5929
vt 0.1453 0.5722
vt 0.1232 0.5472
vt 0.0979 0.4684
vt 0.0325 0.8985
vt 0.0625 0.9003
vt 0.5717 0.8998
vt 0.6043 0.8979
vt 0.5268 0.4711
vn 0.7462 -0.0009 0.6657
vn 0.6494 -0.0011 0.7605
vn -0.0000 0.0000 1.0000
vn -0.6493 -0.0011 0.7605
vn -0.7462 -0.0009 0.6657
vn 0.7016 -0.0028 -0.7125
vn 0.7052 -0.0003 -0.7091
vn 0.7051 -0.0003 -0.7091
vn 0.5461 -0.0006 -0.8377
vn 0.4048 -0.0004 -0.9144
vn 0.2754 -0.0000 -0.9613
vn 0.1605 -0.0000 -0.9870
vn 0.0527 0.0000 -0.9986
vn -0.0527 0.0000 -0.9986
vn -0.1605 0.0000 -0.9870
vn -0.2754 0.0000 -0.9613
vn -0.4048 -0.0004 -0.9144
vn -0.5461 -0.0006 -0.8377
vn -0.9917 0.0000 -0.1282
vn -0.0000 0.5361 -0.8441
vn 0.0000 0.5046 -0.8633
vn -0.0000 -0.8200 0.5724
vn -0.0000 -0.8120 0.5837
vn -0.5416 -0.0046 -0.8406
vn -0.4149 -0.0033 -0.9099
vn 0.4149 -0.0033 -0.9099
vn 0.5416 -0.0046 -0.8406
vn -0.0001 -1.0000 0.0002
vn 0.0001 -1.0000 0.0002
vn 0.0000 1.0000 -0.0002
vn -0.0000 -1.0000 0.0002
vn 1.0000 0.0000 0.0000
vn -1.0000 -0.0000 -0.0000
vn 0.0001 1.0000 -0.0002
vn -0.0001 1.0000 -0.0002
vn 0.0161 -0.9841 -0.1770
vn 0.0040 -0.9836 -0.1803
vn 0.0020 -0.9834 -0.1812
vn -0.0066 -0.9824 -0.1866
vn 0.0000 -0.9835 -0.1812
vn 0.0017 -0.9843 -0.1763
vn -0.0003 -0.9830 -0.1837
vn -0.0004 -0.9830 -0.1839
vn -0.0004 -0.9829 -0.1840
vn 0.0000 -0.9838 -0.1790
vn -0.9919 0.0001 -0.1267
vn -0.9111 0.0003 -0.4121
vn -0.9086 -0.0001 -0.4177
vn -0.7081 -0.0001 -0.7061
vn -0.7051 -0.0003 -0.7091
vn -0.7016 -0.0028 -0.7125
vn 0.7081 -0.0001 -0.7061
vn 0.9086 -0.0001 -0.4177
vn 0.9111 0.0003 -0.4121
vn 0.9919 0.0001 -0.1267
vn 0.9917 0.0000 -0.1282
vn 0.0000 1.0000 0.0000
usemtl None
s off
f 23/23/11 24/24/11 26/25/11 25/26/11
f 25/26/12 26/25/12 28/27/12 27/28/12
f 27/28/13 28/27/13 30/29/13 29/30/13
f 29/30/14 30/29/14 32/31/14 31/32/14
f 31/32/15 32/31/15 34/33/15 33/34/15
f 47/35/16 67/36/16 48/37/16
f 67/36/17 78/38/17 48/37/17
f 62/39/18 48/37/18 78/38/18
f 79/40/19 65/41/19 62/42/19 78/43/19
f 80/44/20 63/45/20 65/41/20 79/40/20
f 81/46/21 61/47/21 63/45/21 80/44/21
f 88/48/22 60/49/22 61/47/22 81/46/22
f 82/50/23 66/51/23 60/49/23 88/48/23
f 87/52/24 57/53/24 66/51/24 82/50/24
f 83/54/25 58/55/25 57/53/25 87/52/25
f 84/56/26 56/57/26 58/55/26 83/54/26
f 85/58/27 54/59/27 56/57/27 84/56/27
f 86/60/28 55/61/28 54/59/28 85/58/28
f 33/62/29 34/63/29 52/64/29
f 59/65/30 111/66/30 51/67/30
f 51/67/31 34/33/31 24/24/31
f 31/32/32 25/26/32 27/28/32 29/30/32
f 25/26/33 31/32/33 33/34/33
f 33/34/33 23/23/33 25/26/33
f 37/68/34 75/69/34 74/70/34 38/71/34
f 38/71/35 74/70/35 73/72/35 39/73/35
f 39/73/26 73/72/26 72/74/26 40/75/26
f 40/75/25 72/74/25 76/76/25 41/77/25
f 41/77/24 76/76/24 71/78/24 42/79/24
f 42/79/23 71/78/23 77/80/23 43/81/23
f 43/81/22 77/80/22 70/82/22 44/83/22
f 44/83/21 70/82/21 69/84/21 45/85/21
f 45/85/36 69/84/36 68/86/36 46/87/36
f 46/87/37 68/86/37 67/36/37 47/35/37
f 80/88/38 79/89/38 101/90/38 102/91/38
f 86/92/39 85/93/39 107/94/39 108/95/39
f 70/82/40 77/80/40 99/96/40 92/97/40
f 81/98/38 80/88/38 102/91/38 103/99/38
f 77/80/40 71/78/40 93/100/40 99/96/40
f 88/101/41 81/98/41 103/99/41 110/102/41
f 75/69/42 86/92/42 108/95/42 97/103/42
f 71/78/40 76/76/40 98/104/40 93/100/40
f 78/38/43 67/36/43 89/105/43 100/106/43
f 82/107/41 88/101/41 110/102/41 104/108/41
f 69/84/44 70/82/44 92/97/44 91/109/44
f 85/93/39 84/110/39 106/111/39 107/94/39
f 74/70/45 75/69/45 97/103/45 96/112/45
f 79/89/38 78/38/38 100/106/38 101/90/38
f 68/86/44 69/84/44 91/109/44 90/113/44
f 84/110/39 83/114/39 105/115/39 106/111/39
f 73/72/45 74/70/45 96/112/45 95/116/45
f 67/36/44 68/86/44 90/113/44 89/105/44
f 83/114/41 87/117/41 109/118/41 105/115/41
f 72/74/45 73/72/45 95/116/45 94/119/45
f 87/117/41 82/107/41 104/108/41 109/118/41
f 76/76/40 72/74/40 94/119/40 98/104/40
f 35/120/46 36/121/46 33/122/46
f 36/121/47 37/123/47 33/122/47
f 37/123/48 38/124/48 33/122/48
f 38/124/49 39/125/49 33/122/49
f 39/125/50 40/126/50 33/122/50
f 40/126/50 41/127/50 33/122/50
f 41/127/50 42/128/50 33/122/50
f 42/128/50 43/129/50 33/122/50
f 43/129/50 44/130/50 33/122/50
f 44/130/50 45/131/50 33/122/50
f 45/131/51 46/132/51 33/122/51
f 46/132/52 47/133/52 33/122/52
f 47/133/53 48/134/53 33/122/53
f 48/134/54 49/135/54 33/122/54
f 49/135/55 23/136/55 33/122/55
f 59/65/30 64/137/30 111/66/30
f 64/137/30 62/39/30 111/66/30
f 62/39/30 65/138/30 111/66/30
f 65/138/30 63/139/30 111/66/30
f 63/139/30 61/140/30 111/66/30
f 61/140/30 60/141/30 111/66/30
f 60/141/30 66/142/30 111/66/30
f 66/142/30 57/143/30 111/66/30
f 57/143/30 58/144/30 111/66/30
f 58/144/30 56/145/30 111/66/30
f 56/145/30 54/146/30 111/66/30
f 54/146/30 55/147/30 111/66/30
f 55/147/30 53/148/30 111/66/30
f 53/148/30 52/64/30 111/66/30
f 50/149/30 111/66/30 52/64/30
f 35/150/56 33/62/56 52/64/56
f 52/64/57 53/148/57 35/150/57
f 36/151/58 35/150/58 53/148/58
f 36/151/59 53/148/59 55/147/59
f 55/147/60 86/92/60 36/151/60
f 37/68/61 36/151/61 75/69/61
f 86/92/60 75/69/60 36/151/60
f 64/137/62 48/37/62 62/39/62
f 48/37/63 64/137/63 49/152/63
f 64/137/64 59/65/64 49/152/64
f 23/153/65 49/152/65 59/65/65
f 24/154/66 23/153/66 59/65/66
f 30/29/67 28/27/67 32/31/67
f 26/25/67 32/31/67 28/27/67
f 34/33/67 32/31/67 26/25/67
f 24/24/67 34/33/67 26/25/67
f 111/66/31 50/149/31 34/33/31 51/67/31
